<?xml version="1.0" encoding="UTF-8" standalone="no"?>
<svg
   id="Layer_1"
   data-name="Layer 1"
   viewBox="0 0 309 322.14"
   version="1.1"
   sodipodi:docname="unearthed.svg"
   width="309"
   height="322.14001"
   inkscape:version="1.3.2 (091e20ef0f, 2023-11-25)"
   xmlns:inkscape="http://www.inkscape.org/namespaces/inkscape"
   xmlns:sodipodi="http://sodipodi.sourceforge.net/DTD/sodipodi-0.dtd"
   xmlns="http://www.w3.org/2000/svg"
   xmlns:svg="http://www.w3.org/2000/svg">
  <defs
     id="defs14" />
  <sodipodi:namedview
     id="namedview14"
     pagecolor="#ffffff"
     bordercolor="#000000"
     borderopacity="0.25"
     inkscape:showpageshadow="2"
     inkscape:pageopacity="0.0"
     inkscape:pagecheckerboard="0"
     inkscape:deskcolor="#d1d1d1"
     inkscape:zoom="0.70160673"
     inkscape:cx="652.78735"
     inkscape:cy="161.05889"
     inkscape:window-width="1731"
     inkscape:window-height="1392"
     inkscape:window-x="0"
     inkscape:window-y="0"
     inkscape:window-maximized="0"
     inkscape:current-layer="Layer_1" />
  <path
     d="m 285.22,210.24 14.44,8.17 q -7.2,-4.14 -14.44,-8.17 z"
     style="fill:none"
     id="path10" />
  <path
     d="M 307.56,43.35 C 281.98,28.24 256.23,15.04 230.56,0 c -0.15,59.43 -0.18,119.92 0,179.33 l 54.65,30.91 q 7.23,4 14.44,8.17 l 7.82,4.42 -0.1,0.07 0.18,0.1 c -0.01,-59.38 -0.17,-120.27 0.01,-179.65 z"
     style="fill:#f26722"
     id="path11" />
  <path
     d="M 78.44,0 C 52.32,15.27 26.07,28.67 0,44.01 0.18,104.29 0,166.11 0,226.39 L 78.47,179.33 C 78.62,119.02 78.59,60.34 78.44,0 Z"
     style="fill:#f9c573"
     id="path12" />
  <polygon
     points="153.74,224.61 78.48,179.33 0,226.39 79.92,274.54 "
     style="fill:#f9a01b"
     id="polygon12" />
  <polygon
     points="233.66,272.76 153.74,224.61 80.01,274.54 153.74,322.14 "
     style="fill:#f26722"
     id="polygon13" />
  <polygon
     points="307.48,222.83 230.57,179.33 153.74,224.6 233.66,272.76 307.38,222.9 "
     style="fill:#f68638"
     id="polygon14" />
</svg>
